<svg width="156" height="45" viewBox="0 0 156 45" fill="none" xmlns="http://www.w3.org/2000/svg">
<g clip-path="url(#clip0_8477_2654)">
<path d="M54.9355 9.53516H69.5884V12.4044H57.9163V21.068H68.4463V23.9094H57.9163V34.8852H54.9355V9.53516Z" fill="white"/>
<path d="M73.125 9.53516H76.1336V34.8573H73.125V9.53516Z" fill="white"/>
<path d="M82.1783 33.5209C81.0362 32.2395 80.4512 30.4566 80.4512 28.1724V16.8066H83.4597V27.6988C83.4597 29.4259 83.8497 30.6795 84.6297 31.4874C85.4097 32.2952 86.4683 32.6852 87.7776 32.6852C88.7805 32.6852 89.6997 32.4066 90.4797 31.8774C91.2597 31.3481 91.8726 30.6238 92.3183 29.7602C92.764 28.8966 92.959 27.9774 92.959 27.0024V16.8066H95.9955V34.8581H93.1262V32.2395H92.9869C92.4855 33.1309 91.7055 33.8831 90.619 34.4959C89.5326 35.1088 88.3905 35.4152 87.1647 35.4152C84.964 35.4431 83.3205 34.8024 82.1783 33.5209Z" fill="white"/>
<path d="M105.524 35.0801C104.911 34.8294 104.381 34.523 103.936 34.1051C103.462 33.6594 103.1 33.1301 102.877 32.5173C102.654 31.9044 102.515 31.1802 102.515 30.3166V19.5359H99.3672V16.8059H102.515V11.708H105.524V16.8059H109.925V19.5359H105.551V29.5923C105.551 30.5951 105.746 31.3473 106.109 31.8209C106.554 32.3501 107.195 32.6287 108.059 32.6287C108.755 32.6287 109.396 32.4337 110.036 32.0159V34.9409C109.674 35.108 109.312 35.2194 108.95 35.303C108.588 35.3866 108.114 35.4144 107.557 35.4144C106.833 35.4423 106.136 35.303 105.524 35.0801Z" fill="white"/>
<path d="M118.281 35.0801C117.668 34.8294 117.139 34.523 116.693 34.1051C116.219 33.6594 115.857 33.1301 115.634 32.5173C115.412 31.9044 115.272 31.1802 115.272 30.3166V19.5359H112.152V16.8059H115.3V11.708H118.309V16.8059H122.682V19.5359H118.309V29.5923C118.309 30.5951 118.504 31.3473 118.866 31.8209C119.312 32.3501 119.952 32.6287 120.816 32.6287C121.512 32.6287 122.153 32.4337 122.794 32.0159V34.9409C122.432 35.108 122.069 35.2194 121.707 35.303C121.345 35.3866 120.872 35.4144 120.314 35.4144C119.59 35.4423 118.922 35.303 118.281 35.0801Z" fill="white"/>
<path d="M128.951 34.1886C127.586 33.3528 126.528 32.2386 125.748 30.7621C124.968 29.3136 124.605 27.67 124.605 25.8593C124.605 24.1043 124.968 22.5164 125.692 21.04C126.416 19.5914 127.419 18.4214 128.756 17.53C130.065 16.6664 131.598 16.2207 133.353 16.2207C135.108 16.2207 136.668 16.6107 137.949 17.4186C139.258 18.1986 140.233 19.3128 140.93 20.6778C141.626 22.0707 141.96 23.6586 141.96 25.4414C141.96 25.8036 141.933 26.11 141.849 26.3607H127.586C127.67 27.7257 127.976 28.8957 128.589 29.815C129.174 30.7621 129.926 31.4586 130.845 31.9321C131.765 32.4057 132.712 32.6286 133.687 32.6286C135.999 32.6286 137.782 31.5421 139.035 29.3693L141.57 30.595C140.79 32.0436 139.732 33.2136 138.395 34.0493C137.058 34.885 135.442 35.3307 133.575 35.3307C131.876 35.4421 130.316 35.0243 128.951 34.1886ZM138.785 23.9371C138.729 23.185 138.534 22.4328 138.144 21.6807C137.754 20.9286 137.169 20.2878 136.361 19.7586C135.553 19.2293 134.523 18.9786 133.297 18.9786C131.876 18.9786 130.678 19.4243 129.703 20.3436C128.728 21.2628 128.088 22.4607 127.781 23.9371H138.785Z" fill="white"/>
<path d="M145.471 16.834H148.34V19.7312H148.479C148.841 18.7283 149.51 17.9205 150.541 17.2519C151.544 16.5833 152.602 16.249 153.716 16.249C154.552 16.249 155.249 16.3883 155.834 16.639V19.8705C155.081 19.4805 154.218 19.3133 153.299 19.3133C152.435 19.3133 151.627 19.564 150.903 20.0655C150.179 20.5669 149.594 21.2355 149.148 22.0712C148.702 22.9069 148.507 23.8262 148.507 24.7733V34.8855H145.499V16.834H145.471Z" fill="white"/>
<path d="M37.0631 20.4492H23.7056L12.0195 32.1381L18.6969 38.8154L37.0631 20.4492Z" fill="#5FC9F8"/>
<path d="M8.68014 28.7985L2 22.1184L23.7063 0.412109H37.0638L8.68014 28.7985Z" fill="#5FC9F8"/>
<path d="M18.6973 38.816L23.706 43.8247H37.0635L25.3746 32.1387L18.6973 38.816Z" fill="#065B9D"/>
<path d="M18.6973 38.816L28.6033 35.3868L25.3746 32.1387L18.6973 38.816Z" fill="url(#paint0_linear_8477_2654)"/>
<path d="M18.6971 25.4572L12.0195 32.1348L18.6971 38.8123L25.3746 32.1348L18.6971 25.4572Z" fill="#32B9F6"/>
</g>
<defs>
<linearGradient id="paint0_linear_8477_2654" x1="20.6445" y1="40.1055" x2="25.619" y2="35.131" gradientUnits="userSpaceOnUse">
<stop stop-color="#1A237E" stop-opacity="0.4"/>
<stop offset="1" stop-color="#1A237E" stop-opacity="0"/>
</linearGradient>
<clipPath id="clip0_8477_2654">
<rect width="156" height="43.641" fill="white" transform="translate(0 0.412109)"/>
</clipPath>
</defs>
</svg>
